<mxfile host="app.diagrams.net" modified="2023-05-14T14:36:09.908Z" agent="Mozilla/5.0 (Windows NT 10.0; Win64; x64) AppleWebKit/537.36 (KHTML, like Gecko) Chrome/113.0.0.0 Safari/537.36" etag="laTs9dngpMzNdI0yTKyS" version="21.3.0" type="github">
  <diagram name="Page-1" id="H9VZvcb2wJK6X1MnPHUd">
    <mxGraphModel dx="2286" dy="1904" grid="0" gridSize="10" guides="1" tooltips="1" connect="1" arrows="1" fold="1" page="1" pageScale="1" pageWidth="850" pageHeight="1100" math="0" shadow="0">
      <root>
        <mxCell id="0" />
        <mxCell id="1" parent="0" />
        <mxCell id="BmYQlpxGfJ4uTeWEvMpN-4" value="Region" style="points=[[0,0],[0.25,0],[0.5,0],[0.75,0],[1,0],[1,0.25],[1,0.5],[1,0.75],[1,1],[0.75,1],[0.5,1],[0.25,1],[0,1],[0,0.75],[0,0.5],[0,0.25]];outlineConnect=0;gradientColor=none;html=1;whiteSpace=wrap;fontSize=12;fontStyle=0;container=0;pointerEvents=0;collapsible=0;recursiveResize=0;shape=mxgraph.aws4.group;grIcon=mxgraph.aws4.group_region;strokeColor=#147EBA;fillColor=none;verticalAlign=top;align=left;spacingLeft=30;fontColor=#147EBA;dashed=1;" parent="1" vertex="1">
          <mxGeometry x="-604" y="-1076" width="1153" height="1067" as="geometry" />
        </mxCell>
        <mxCell id="BmYQlpxGfJ4uTeWEvMpN-5" value="" style="html=1;align=center;verticalAlign=top;rounded=1;absoluteArcSize=1;arcSize=20;dashed=1;whiteSpace=wrap;" parent="1" vertex="1">
          <mxGeometry x="-321" y="-1043" width="438" height="77" as="geometry" />
        </mxCell>
        <mxCell id="BmYQlpxGfJ4uTeWEvMpN-6" value="" style="sketch=0;outlineConnect=0;fontColor=#232F3E;gradientColor=none;fillColor=#EBB401;strokeColor=none;dashed=0;verticalLabelPosition=bottom;verticalAlign=top;align=center;html=1;fontSize=12;fontStyle=0;aspect=fixed;pointerEvents=1;shape=mxgraph.aws4.bucket;" parent="1" vertex="1">
          <mxGeometry x="-303" y="-1032.25" width="52.16" height="54.25" as="geometry" />
        </mxCell>
        <mxCell id="BmYQlpxGfJ4uTeWEvMpN-25" value="" style="sketch=0;outlineConnect=0;fontColor=#232F3E;gradientColor=none;strokeColor=#ffffff;fillColor=#EBB401;dashed=0;verticalLabelPosition=middle;verticalAlign=bottom;align=center;html=1;whiteSpace=wrap;fontSize=10;fontStyle=1;spacing=3;shape=mxgraph.aws4.productIcon;prIcon=mxgraph.aws4.api_gateway;" parent="1" vertex="1">
          <mxGeometry x="32" y="-1032.25" width="59" height="53.25" as="geometry" />
        </mxCell>
        <mxCell id="-oMUdWIERpby7UjC0zoH-8" value="&lt;b&gt;S3 Gateway&lt;/b&gt;" style="text;html=1;strokeColor=none;fillColor=none;align=center;verticalAlign=middle;whiteSpace=wrap;rounded=0;" parent="1" vertex="1">
          <mxGeometry x="-591" y="-569" width="60" height="30" as="geometry" />
        </mxCell>
        <mxCell id="-oMUdWIERpby7UjC0zoH-3" value="" style="sketch=0;outlineConnect=0;fontColor=#232F3E;gradientColor=none;fillColor=#EBB401;strokeColor=none;dashed=0;verticalLabelPosition=bottom;verticalAlign=top;align=center;html=1;fontSize=12;fontStyle=0;aspect=fixed;pointerEvents=1;shape=mxgraph.aws4.s3_file_gateway;" parent="1" vertex="1">
          <mxGeometry x="-585" y="-626" width="48" height="48" as="geometry" />
        </mxCell>
        <mxCell id="BmYQlpxGfJ4uTeWEvMpN-11" value="VPC" style="points=[[0,0],[0.25,0],[0.5,0],[0.75,0],[1,0],[1,0.25],[1,0.5],[1,0.75],[1,1],[0.75,1],[0.5,1],[0.25,1],[0,1],[0,0.75],[0,0.5],[0,0.25]];outlineConnect=0;html=1;whiteSpace=wrap;fontSize=12;fontStyle=0;container=1;pointerEvents=0;collapsible=0;recursiveResize=0;shape=mxgraph.aws4.group;grIcon=mxgraph.aws4.group_vpc;verticalAlign=top;align=left;spacingLeft=30;dashed=0;" parent="1" vertex="1">
          <mxGeometry x="-537" y="-867" width="1035" height="834" as="geometry" />
        </mxCell>
        <mxCell id="-oMUdWIERpby7UjC0zoH-16" value="" style="rounded=1;whiteSpace=wrap;html=1;dashed=1;fillColor=none;strokeColor=#F34482;" parent="BmYQlpxGfJ4uTeWEvMpN-11" vertex="1">
          <mxGeometry x="46" y="406" width="716" height="202" as="geometry" />
        </mxCell>
        <mxCell id="BmYQlpxGfJ4uTeWEvMpN-12" value="" style="whiteSpace=wrap;html=1;dashed=1;fillColor=none;perimeterSpacing=2;strokeWidth=1;" parent="BmYQlpxGfJ4uTeWEvMpN-11" vertex="1">
          <mxGeometry x="45" y="-30" width="328" height="684" as="geometry" />
        </mxCell>
        <mxCell id="BmYQlpxGfJ4uTeWEvMpN-31" value="Public subnet" style="points=[[0,0],[0.25,0],[0.5,0],[0.75,0],[1,0],[1,0.25],[1,0.5],[1,0.75],[1,1],[0.75,1],[0.5,1],[0.25,1],[0,1],[0,0.75],[0,0.5],[0,0.25]];outlineConnect=0;gradientColor=none;html=1;whiteSpace=wrap;fontSize=12;fontStyle=0;container=1;pointerEvents=0;collapsible=0;recursiveResize=0;shape=mxgraph.aws4.group;grIcon=mxgraph.aws4.group_security_group;grStroke=0;strokeColor=#248814;fillColor=#E9F3E6;verticalAlign=top;align=left;spacingLeft=30;fontColor=#248814;dashed=0;" parent="BmYQlpxGfJ4uTeWEvMpN-11" vertex="1">
          <mxGeometry x="452" y="60" width="288.5" height="152" as="geometry" />
        </mxCell>
        <mxCell id="BmYQlpxGfJ4uTeWEvMpN-32" value="NAT gateway" style="sketch=0;outlineConnect=0;fontColor=#232F3E;gradientColor=none;strokeColor=#232F3E;fillColor=#ffffff;dashed=0;verticalLabelPosition=bottom;verticalAlign=top;align=center;html=1;fontSize=12;fontStyle=0;aspect=fixed;shape=mxgraph.aws4.resourceIcon;resIcon=mxgraph.aws4.nat_gateway;" parent="BmYQlpxGfJ4uTeWEvMpN-31" vertex="1">
          <mxGeometry x="201" y="49" width="60" height="60" as="geometry" />
        </mxCell>
        <mxCell id="BmYQlpxGfJ4uTeWEvMpN-36" value="Application Load Balancer" style="sketch=0;outlineConnect=0;fontColor=#232F3E;gradientColor=none;strokeColor=#ffffff;fillColor=#232F3E;dashed=0;verticalLabelPosition=middle;verticalAlign=bottom;align=center;html=1;whiteSpace=wrap;fontSize=10;fontStyle=1;spacing=3;shape=mxgraph.aws4.productIcon;prIcon=mxgraph.aws4.application_load_balancer;" parent="BmYQlpxGfJ4uTeWEvMpN-31" vertex="1">
          <mxGeometry x="12" y="41" width="57" height="95" as="geometry" />
        </mxCell>
        <mxCell id="BmYQlpxGfJ4uTeWEvMpN-76" value="" style="group" parent="BmYQlpxGfJ4uTeWEvMpN-11" vertex="1" connectable="0">
          <mxGeometry x="450" y="429" width="286" height="170" as="geometry" />
        </mxCell>
        <mxCell id="BmYQlpxGfJ4uTeWEvMpN-63" value="Private subnet" style="points=[[0,0],[0.25,0],[0.5,0],[0.75,0],[1,0],[1,0.25],[1,0.5],[1,0.75],[1,1],[0.75,1],[0.5,1],[0.25,1],[0,1],[0,0.75],[0,0.5],[0,0.25]];outlineConnect=0;gradientColor=none;html=1;whiteSpace=wrap;fontSize=12;fontStyle=0;container=0;pointerEvents=0;collapsible=0;recursiveResize=0;shape=mxgraph.aws4.group;grIcon=mxgraph.aws4.group_security_group;grStroke=0;strokeColor=#147EBA;fillColor=#E6F2F8;verticalAlign=top;align=left;spacingLeft=30;fontColor=#147EBA;dashed=0;fontFamily=Helvetica;" parent="BmYQlpxGfJ4uTeWEvMpN-76" vertex="1">
          <mxGeometry width="286" height="170" as="geometry" />
        </mxCell>
        <mxCell id="BmYQlpxGfJ4uTeWEvMpN-13" value="&lt;b&gt;Availability Zone&lt;/b&gt;" style="text;html=1;strokeColor=none;fillColor=none;align=center;verticalAlign=middle;whiteSpace=wrap;rounded=0;" parent="BmYQlpxGfJ4uTeWEvMpN-11" vertex="1">
          <mxGeometry x="90" y="-30" width="170" height="30" as="geometry" />
        </mxCell>
        <mxCell id="BmYQlpxGfJ4uTeWEvMpN-17" value="Public subnet" style="points=[[0,0],[0.25,0],[0.5,0],[0.75,0],[1,0],[1,0.25],[1,0.5],[1,0.75],[1,1],[0.75,1],[0.5,1],[0.25,1],[0,1],[0,0.75],[0,0.5],[0,0.25]];outlineConnect=0;gradientColor=none;html=1;whiteSpace=wrap;fontSize=12;fontStyle=0;container=1;pointerEvents=0;collapsible=0;recursiveResize=0;shape=mxgraph.aws4.group;grIcon=mxgraph.aws4.group_security_group;grStroke=0;strokeColor=#248814;fillColor=#E9F3E6;verticalAlign=top;align=left;spacingLeft=30;fontColor=#248814;dashed=0;" parent="BmYQlpxGfJ4uTeWEvMpN-11" vertex="1">
          <mxGeometry x="70" y="62" width="275" height="149" as="geometry" />
        </mxCell>
        <mxCell id="BmYQlpxGfJ4uTeWEvMpN-34" value="Application Load Balancer" style="sketch=0;outlineConnect=0;fontColor=#232F3E;gradientColor=none;strokeColor=#ffffff;fillColor=#232F3E;dashed=0;verticalLabelPosition=middle;verticalAlign=bottom;align=center;html=1;whiteSpace=wrap;fontSize=10;fontStyle=1;spacing=3;shape=mxgraph.aws4.productIcon;prIcon=mxgraph.aws4.application_load_balancer;" parent="BmYQlpxGfJ4uTeWEvMpN-17" vertex="1">
          <mxGeometry x="208" y="39" width="61" height="101" as="geometry" />
        </mxCell>
        <mxCell id="-oMUdWIERpby7UjC0zoH-17" value="" style="rounded=0;whiteSpace=wrap;html=1;fillColor=none;dashed=1;strokeColor=#EBB401;" parent="BmYQlpxGfJ4uTeWEvMpN-17" vertex="1">
          <mxGeometry x="195" y="31" width="275" height="110" as="geometry" />
        </mxCell>
        <mxCell id="BmYQlpxGfJ4uTeWEvMpN-19" style="edgeStyle=orthogonalEdgeStyle;rounded=0;orthogonalLoop=1;jettySize=auto;html=1;exitX=0.5;exitY=1;exitDx=0;exitDy=0;" parent="BmYQlpxGfJ4uTeWEvMpN-11" source="BmYQlpxGfJ4uTeWEvMpN-17" target="BmYQlpxGfJ4uTeWEvMpN-17" edge="1">
          <mxGeometry relative="1" as="geometry" />
        </mxCell>
        <mxCell id="BmYQlpxGfJ4uTeWEvMpN-29" value="Private subnet" style="points=[[0,0],[0.25,0],[0.5,0],[0.75,0],[1,0],[1,0.25],[1,0.5],[1,0.75],[1,1],[0.75,1],[0.5,1],[0.25,1],[0,1],[0,0.75],[0,0.5],[0,0.25]];outlineConnect=0;gradientColor=none;html=1;whiteSpace=wrap;fontSize=12;fontStyle=0;container=1;pointerEvents=0;collapsible=0;recursiveResize=0;shape=mxgraph.aws4.group;grIcon=mxgraph.aws4.group_security_group;grStroke=0;strokeColor=#147EBA;fillColor=#E6F2F8;verticalAlign=top;align=left;spacingLeft=30;fontColor=#147EBA;dashed=0;" parent="BmYQlpxGfJ4uTeWEvMpN-11" vertex="1">
          <mxGeometry x="65" y="425" width="288" height="175" as="geometry" />
        </mxCell>
        <mxCell id="BmYQlpxGfJ4uTeWEvMpN-44" value="Server" style="sketch=0;outlineConnect=0;fontColor=#232F3E;gradientColor=none;strokeColor=#ffffff;fillColor=#232F3E;dashed=0;verticalLabelPosition=middle;verticalAlign=bottom;align=center;html=1;whiteSpace=wrap;fontSize=10;fontStyle=1;spacing=3;shape=mxgraph.aws4.productIcon;prIcon=mxgraph.aws4.server_migration_service;" parent="BmYQlpxGfJ4uTeWEvMpN-29" vertex="1">
          <mxGeometry x="119" y="107" width="37" height="56" as="geometry" />
        </mxCell>
        <mxCell id="BmYQlpxGfJ4uTeWEvMpN-72" value="" style="rounded=1;whiteSpace=wrap;html=1;pointerEvents=0;fontFamily=Helvetica;fontSize=12;fillColor=none;strokeColor=#F34482;" parent="BmYQlpxGfJ4uTeWEvMpN-29" vertex="1">
          <mxGeometry x="82" y="99" width="470" height="75" as="geometry" />
        </mxCell>
        <mxCell id="BmYQlpxGfJ4uTeWEvMpN-65" value="" style="sketch=0;points=[[0,0,0],[0.25,0,0],[0.5,0,0],[0.75,0,0],[1,0,0],[0,1,0],[0.25,1,0],[0.5,1,0],[0.75,1,0],[1,1,0],[0,0.25,0],[0,0.5,0],[0,0.75,0],[1,0.25,0],[1,0.5,0],[1,0.75,0]];points=[[0,0,0],[0.25,0,0],[0.5,0,0],[0.75,0,0],[1,0,0],[0,1,0],[0.25,1,0],[0.5,1,0],[0.75,1,0],[1,1,0],[0,0.25,0],[0,0.5,0],[0,0.75,0],[1,0.25,0],[1,0.5,0],[1,0.75,0]];outlineConnect=0;fontColor=#232F3E;gradientColor=#F34482;gradientDirection=north;fillColor=#BC1356;strokeColor=#ffffff;dashed=0;verticalLabelPosition=bottom;verticalAlign=top;align=center;html=1;fontSize=12;fontStyle=0;aspect=fixed;shape=mxgraph.aws4.resourceIcon;resIcon=mxgraph.aws4.autoscaling;pointerEvents=0;fontFamily=Helvetica;" parent="BmYQlpxGfJ4uTeWEvMpN-11" vertex="1">
          <mxGeometry x="382.25" y="435" width="37" height="37" as="geometry" />
        </mxCell>
        <mxCell id="-oMUdWIERpby7UjC0zoH-9" value="&lt;font color=&quot;#f34482&quot;&gt;&lt;b&gt;Auto Scaling&lt;br&gt;Group&lt;/b&gt;&lt;/font&gt;" style="text;html=1;strokeColor=none;fillColor=none;align=center;verticalAlign=middle;whiteSpace=wrap;rounded=0;" parent="BmYQlpxGfJ4uTeWEvMpN-11" vertex="1">
          <mxGeometry x="371" y="478" width="59.5" height="30" as="geometry" />
        </mxCell>
        <mxCell id="BmYQlpxGfJ4uTeWEvMpN-64" value="Server" style="sketch=0;outlineConnect=0;fontColor=#232F3E;gradientColor=none;strokeColor=#ffffff;fillColor=#232F3E;dashed=0;verticalLabelPosition=middle;verticalAlign=bottom;align=center;html=1;whiteSpace=wrap;fontSize=10;fontStyle=1;spacing=3;shape=mxgraph.aws4.productIcon;prIcon=mxgraph.aws4.server_migration_service;" parent="BmYQlpxGfJ4uTeWEvMpN-11" vertex="1">
          <mxGeometry x="500" y="531" width="40" height="54" as="geometry" />
        </mxCell>
        <mxCell id="BmYQlpxGfJ4uTeWEvMpN-22" value="NAT gateway" style="sketch=0;outlineConnect=0;fontColor=#232F3E;gradientColor=none;strokeColor=#232F3E;fillColor=#ffffff;dashed=0;verticalLabelPosition=bottom;verticalAlign=top;align=center;html=1;fontSize=12;fontStyle=0;aspect=fixed;shape=mxgraph.aws4.resourceIcon;resIcon=mxgraph.aws4.nat_gateway;" parent="BmYQlpxGfJ4uTeWEvMpN-11" vertex="1">
          <mxGeometry x="78" y="106" width="60" height="60" as="geometry" />
        </mxCell>
        <mxCell id="BmYQlpxGfJ4uTeWEvMpN-14" value="" style="whiteSpace=wrap;html=1;dashed=1;fillColor=none;movable=1;resizable=1;rotatable=1;deletable=1;editable=1;locked=0;connectable=1;" parent="BmYQlpxGfJ4uTeWEvMpN-11" vertex="1">
          <mxGeometry x="430.5" y="-32" width="331.5" height="686" as="geometry" />
        </mxCell>
        <mxCell id="BmYQlpxGfJ4uTeWEvMpN-26" value="" style="sketch=0;outlineConnect=0;fontColor=#ffffff;fillColor=#F34482;strokeColor=#3700CC;dashed=0;verticalLabelPosition=bottom;verticalAlign=top;align=center;html=1;fontSize=12;fontStyle=0;aspect=fixed;pointerEvents=1;shape=mxgraph.aws4.internet_gateway;" parent="1" vertex="1">
          <mxGeometry x="-162" y="-895" width="52" height="52" as="geometry" />
        </mxCell>
        <mxCell id="4l2SW0-Cm2sjLY3v0edG-4" value="&amp;nbsp;" style="sketch=0;outlineConnect=0;fontColor=#232F3E;gradientColor=none;strokeColor=#ffffff;fillColor=#232F3E;dashed=0;verticalLabelPosition=middle;verticalAlign=bottom;align=center;html=1;whiteSpace=wrap;fontSize=10;fontStyle=1;spacing=3;shape=mxgraph.aws4.productIcon;prIcon=mxgraph.aws4.cloudwatch;" vertex="1" parent="1">
          <mxGeometry x="-141" y="-1034" width="58" height="57" as="geometry" />
        </mxCell>
        <mxCell id="4l2SW0-Cm2sjLY3v0edG-5" value="" style="sketch=0;outlineConnect=0;fontColor=#232F3E;gradientColor=none;strokeColor=#ffffff;fillColor=#F34482;dashed=0;verticalLabelPosition=middle;verticalAlign=bottom;align=center;html=1;whiteSpace=wrap;fontSize=10;fontStyle=1;spacing=3;shape=mxgraph.aws4.productIcon;prIcon=mxgraph.aws4.cost_and_usage_report;" vertex="1" parent="1">
          <mxGeometry x="-57" y="-1032.25" width="57" height="55.5" as="geometry" />
        </mxCell>
        <mxCell id="4l2SW0-Cm2sjLY3v0edG-6" value="" style="sketch=0;outlineConnect=0;fontColor=#232F3E;gradientColor=none;strokeColor=#ffffff;fillColor=#F34482;dashed=0;verticalLabelPosition=middle;verticalAlign=bottom;align=center;html=1;whiteSpace=wrap;fontSize=10;fontStyle=1;spacing=3;shape=mxgraph.aws4.productIcon;prIcon=mxgraph.aws4.dynamodb;" vertex="1" parent="1">
          <mxGeometry x="-229" y="-1034" width="60" height="46" as="geometry" />
        </mxCell>
        <mxCell id="BmYQlpxGfJ4uTeWEvMpN-28" value="&lt;b&gt;Availability Zone&lt;/b&gt;" style="text;html=1;strokeColor=none;fillColor=none;align=center;verticalAlign=middle;whiteSpace=wrap;rounded=0;" parent="1" vertex="1">
          <mxGeometry y="-894" width="100" height="30" as="geometry" />
        </mxCell>
        <mxCell id="-oMUdWIERpby7UjC0zoH-14" value="Security Group" style="text;html=1;strokeColor=none;fillColor=default;align=center;verticalAlign=middle;whiteSpace=wrap;rounded=0;fontColor=#F34482;fontStyle=1" parent="1" vertex="1">
          <mxGeometry x="-157" y="-312" width="42" height="30" as="geometry" />
        </mxCell>
      </root>
    </mxGraphModel>
  </diagram>
</mxfile>
